<svg width="24" height="24" viewBox="0 0 24 24" fill="none" xmlns="http://www.w3.org/2000/svg">
<path d="M3.99971 3.2002H10.3997C10.933 3.2002 11.1997 3.46686 11.1997 4.0002V10.4002C11.1997 10.9335 10.933 11.2002 10.3997 11.2002H3.99971C3.46637 11.2002 3.19971 10.9335 3.19971 10.4002V4.0002C3.19971 3.46686 3.46637 3.2002 3.99971 3.2002Z" fill="#999999"/>
<path d="M3.99971 12.7998H10.3997C10.933 12.7998 11.1997 13.0665 11.1997 13.5998V19.9998C11.1997 20.5331 10.933 20.7998 10.3997 20.7998H3.99971C3.46637 20.7998 3.19971 20.5331 3.19971 19.9998V13.5998C3.19971 13.0665 3.46637 12.7998 3.99971 12.7998Z" fill="#999999"/>
<path d="M13.5998 3.2002H19.9998C20.5331 3.2002 20.7998 3.46686 20.7998 4.0002V10.4002C20.7998 10.9335 20.5331 11.2002 19.9998 11.2002H13.5998C13.0665 11.2002 12.7998 10.9335 12.7998 10.4002V4.0002C12.7998 3.46686 13.0665 3.2002 13.5998 3.2002Z" fill="#999999"/>
<path d="M13.5998 12.7998H19.9998C20.5331 12.7998 20.7998 13.0665 20.7998 13.5998V19.9998C20.7998 20.5331 20.5331 20.7998 19.9998 20.7998H13.5998C13.0665 20.7998 12.7998 20.5331 12.7998 19.9998V13.5998C12.7998 13.0665 13.0665 12.7998 13.5998 12.7998Z" fill="#999999"/>
</svg>
