<svg width="46" height="46" viewBox="0 0 46 46" fill="none" xmlns="http://www.w3.org/2000/svg">
<path d="M24.757 17.825H11.58V36.8H34.4202V17.825H24.757ZM21.2431 14.375V10.925H20.3647C20.1317 10.925 19.9082 10.8341 19.7435 10.6724C19.5788 10.5106 19.4862 10.2913 19.4862 10.0625V6.61249C19.4862 6.38374 19.5788 6.16436 19.7435 6.00262C19.9082 5.84087 20.1317 5.75 20.3647 5.75H25.6355C25.8685 5.75 26.0919 5.84087 26.2567 6.00262C26.4214 6.16436 26.514 6.38374 26.514 6.61249V10.0625C26.514 10.2913 26.4214 10.5106 26.2567 10.6724C26.0919 10.8341 25.8685 10.925 25.6355 10.925H24.757V14.375H36.1772C36.4079 14.375 36.6364 14.4196 36.8495 14.5063C37.0627 14.593 37.2564 14.7201 37.4195 14.8802C37.5827 15.0404 37.7121 15.2306 37.8004 15.4399C37.8887 15.6492 37.9341 15.8735 37.9341 16.1V38.525C37.9341 38.9825 37.749 39.4213 37.4195 39.7448C37.09 40.0683 36.6431 40.25 36.1772 40.25H9.823C9.35703 40.25 8.91015 40.0683 8.58066 39.7448C8.25116 39.4213 8.06605 38.9825 8.06604 38.525V16.1C8.06604 15.6425 8.25115 15.2037 8.58064 14.8802C8.91013 14.5567 9.35702 14.375 9.823 14.375H21.2431V14.375ZM2.79521 23.8625H4.55216C4.78515 23.8625 5.00859 23.9534 5.17333 24.1151C5.33807 24.2769 5.43062 24.4962 5.43062 24.725V29.9C5.43063 30.0133 5.40791 30.1254 5.36377 30.2301C5.31962 30.3347 5.25492 30.4298 5.17334 30.5099C5.09177 30.59 4.99493 30.6535 4.88835 30.6969C4.78176 30.7402 4.66753 30.7625 4.55216 30.7625H2.79521C2.67984 30.7625 2.56561 30.7402 2.45903 30.6969C2.35244 30.6535 2.2556 30.59 2.17403 30.5099C2.09246 30.4298 2.02775 30.3347 1.9836 30.2301C1.93946 30.1254 1.91674 30.0133 1.91675 29.9V24.725C1.91675 24.4962 2.0093 24.2769 2.17404 24.1151C2.33879 23.9534 2.56222 23.8625 2.79521 23.8625V23.8625ZM15.0938 24.725H20.3647V29.9H15.0938V24.725ZM25.6355 24.725H30.9063V29.9H25.6355V24.725ZM41.448 23.8625H43.205C43.4379 23.8625 43.6614 23.9534 43.8261 24.1151C43.9909 24.2769 44.0834 24.4962 44.0834 24.725V29.9C44.0834 30.0133 44.0607 30.1254 44.0166 30.2301C43.9724 30.3347 43.9077 30.4298 43.8261 30.5099C43.7446 30.59 43.6477 30.6535 43.5411 30.6969C43.4346 30.7402 43.3203 30.7625 43.205 30.7625H41.448C41.3326 30.7625 41.2184 30.7402 41.1118 30.6969C41.0052 30.6535 40.9084 30.59 40.8268 30.5099C40.7452 30.4298 40.6805 30.3347 40.6364 30.2301C40.5922 30.1254 40.5695 30.0133 40.5695 29.9V24.725C40.5695 24.4962 40.6621 24.2769 40.8268 24.1151C40.9916 23.9534 41.215 23.8625 41.448 23.8625V23.8625Z" fill="white"/>
</svg>
