<svg width="24" height="24" viewBox="0 0 24 24" fill="none" xmlns="http://www.w3.org/2000/svg">
<path d="M2 12.0013C2 11.1363 2.11 10.2983 2.316 9.49728C2.86847 9.52632 3.4182 9.40203 3.90444 9.13815C4.39068 8.87427 4.79448 8.48107 5.07121 8.00203C5.34793 7.52298 5.48681 6.97675 5.47247 6.4237C5.45814 5.87066 5.29117 5.33235 4.99 4.86828C6.19894 3.67885 7.69079 2.81678 9.325 2.36328C9.57599 2.85675 9.95864 3.27115 10.4306 3.56059C10.9025 3.85003 11.4454 4.00324 11.999 4.00324C12.5526 4.00324 13.0955 3.85003 13.5674 3.56059C14.0394 3.27115 14.422 2.85675 14.673 2.36328C16.3072 2.81678 17.7991 3.67885 19.008 4.86828C18.7065 5.33243 18.5393 5.87095 18.5248 6.42425C18.5104 6.97754 18.6493 7.52405 18.9262 8.00329C19.2031 8.48254 19.6071 8.87585 20.0937 9.1397C20.5802 9.40355 21.1303 9.52765 21.683 9.49828C21.889 10.2983 21.999 11.1363 21.999 12.0013C21.999 12.8663 21.889 13.7043 21.683 14.5053C21.1305 14.476 20.5806 14.6002 20.0942 14.864C19.6078 15.1278 19.2039 15.521 18.927 16.0001C18.6502 16.4791 18.5112 17.0255 18.5255 17.5786C18.5398 18.1317 18.7068 18.6701 19.008 19.1343C17.7991 20.3237 16.3072 21.1858 14.673 21.6393C14.422 21.1458 14.0394 20.7314 13.5674 20.442C13.0955 20.1525 12.5526 19.9993 11.999 19.9993C11.4454 19.9993 10.9025 20.1525 10.4306 20.442C9.95864 20.7314 9.57599 21.1458 9.325 21.6393C7.69079 21.1858 6.19894 20.3237 4.99 19.1343C5.29151 18.6701 5.45873 18.1316 5.47317 17.5783C5.48761 17.025 5.3487 16.4785 5.07181 15.9993C4.79492 15.52 4.39085 15.1267 3.90431 14.8629C3.41776 14.599 2.8677 14.4749 2.315 14.5043C2.11 13.7053 2 12.8673 2 12.0013ZM6.804 15.0013C7.434 16.0923 7.614 17.3473 7.368 18.5253C7.776 18.8153 8.21 19.0663 8.665 19.2753C9.58167 18.4541 10.7693 18.0004 12 18.0013C13.26 18.0013 14.438 18.4723 15.335 19.2753C15.79 19.0663 16.224 18.8153 16.632 18.5253C16.3794 17.3212 16.5803 16.0664 17.196 15.0013C17.8106 13.9357 18.797 13.1344 19.966 12.7513C20.0122 12.2524 20.0122 11.7502 19.966 11.2513C18.7966 10.8683 17.8099 10.0671 17.195 9.00128C16.5793 7.93621 16.3784 6.68132 16.631 5.47728C16.2231 5.1872 15.7889 4.9361 15.334 4.72728C14.4176 5.54821 13.2303 6.00189 12 6.00128C10.7693 6.00214 9.58167 5.54844 8.665 4.72728C8.21013 4.93611 7.77589 5.18721 7.368 5.47728C7.62056 6.68132 7.41972 7.93621 6.804 9.00128C6.18937 10.0669 5.20298 10.8681 4.034 11.2513C3.98775 11.7502 3.98775 12.2524 4.034 12.7513C5.20335 13.1342 6.19013 13.9355 6.805 15.0013H6.804ZM12 15.0013C11.2044 15.0013 10.4413 14.6852 9.87868 14.1226C9.31607 13.56 9 12.7969 9 12.0013C9 11.2056 9.31607 10.4426 9.87868 9.87996C10.4413 9.31735 11.2044 9.00128 12 9.00128C12.7956 9.00128 13.5587 9.31735 14.1213 9.87996C14.6839 10.4426 15 11.2056 15 12.0013C15 12.7969 14.6839 13.56 14.1213 14.1226C13.5587 14.6852 12.7956 15.0013 12 15.0013ZM12 13.0013C12.2652 13.0013 12.5196 12.8959 12.7071 12.7084C12.8946 12.5209 13 12.2665 13 12.0013C13 11.7361 12.8946 11.4817 12.7071 11.2942C12.5196 11.1066 12.2652 11.0013 12 11.0013C11.7348 11.0013 11.4804 11.1066 11.2929 11.2942C11.1054 11.4817 11 11.7361 11 12.0013C11 12.2665 11.1054 12.5209 11.2929 12.7084C11.4804 12.8959 11.7348 13.0013 12 13.0013V13.0013Z" fill="#666666"/>
</svg>
