<svg width="46" height="46" viewBox="0 0 46 46" fill="none" xmlns="http://www.w3.org/2000/svg">
<path d="M12.372 36.4167L3.83325 43.125V7.66667C3.83325 7.15834 4.03519 6.67082 4.39463 6.31138C4.75408 5.95193 5.24159 5.75 5.74992 5.75H40.2499C40.7583 5.75 41.2458 5.95193 41.6052 6.31138C41.9647 6.67082 42.1666 7.15834 42.1666 7.66667V34.5C42.1666 35.0083 41.9647 35.4958 41.6052 35.8553C41.2458 36.2147 40.7583 36.4167 40.2499 36.4167H12.372ZM11.0457 32.5833H38.3333V9.58333H7.66659V35.2379L11.0457 32.5833ZM21.0833 19.1667H24.9166V23H21.0833V19.1667ZM13.4166 19.1667H17.2499V23H13.4166V19.1667ZM28.7499 19.1667H32.5833V23H28.7499V19.1667Z" fill="white"/>
</svg>
