<svg width="24" height="24" viewBox="0 0 24 24" fill="none" xmlns="http://www.w3.org/2000/svg">
<path d="M0 12C0 5.37258 5.37258 0 12 0C18.6274 0 24 5.37258 24 12C24 18.6274 18.6274 24 12 24C5.37258 24 0 18.6274 0 12Z" fill="black" fill-opacity="0.6"/>
<path d="M7.7999 10.6001C8.5731 10.6001 9.1999 11.2269 9.1999 12.0001C9.1999 12.7733 8.5731 13.4001 7.7999 13.4001C7.02671 13.4001 6.3999 12.7733 6.3999 12.0001C6.3999 11.2269 7.02671 10.6001 7.7999 10.6001Z" fill="white"/>
<path d="M12.0001 10.6001C12.7733 10.6001 13.4001 11.2269 13.4001 12.0001C13.4001 12.7733 12.7733 13.4001 12.0001 13.4001C11.2269 13.4001 10.6001 12.7733 10.6001 12.0001C10.6001 11.2269 11.2269 10.6001 12.0001 10.6001Z" fill="white"/>
<path d="M16.2 10.6001C16.9732 10.6001 17.6 11.2269 17.6 12.0001C17.6 12.7733 16.9732 13.4001 16.2 13.4001C15.4269 13.4001 14.8 12.7733 14.8 12.0001C14.8 11.2269 15.4269 10.6001 16.2 10.6001Z" fill="white"/>
</svg>
