<svg width="24" height="24" viewBox="0 0 24 24" fill="none" xmlns="http://www.w3.org/2000/svg">
<path d="M0 12C0 5.37258 5.37258 0 12 0C18.6274 0 24 5.37258 24 12C24 18.6274 18.6274 24 12 24C5.37258 24 0 18.6274 0 12Z" fill="black" fill-opacity="0.6"/>
<path d="M11.4167 7.91675H7.78704C7.512 7.91675 7.24822 8.02601 7.05374 8.22049C6.85926 8.41497 6.75 8.67875 6.75 8.95379V16.213C6.75 16.4881 6.85926 16.7519 7.05374 16.9463C7.24822 17.1408 7.512 17.2501 7.78704 17.2501H15.0463C15.3213 17.2501 15.5851 17.1408 15.7796 16.9463C15.9741 16.7519 16.0833 16.4881 16.0833 16.213V12.5834" stroke="white" stroke-width="1.2" stroke-linecap="round" stroke-linejoin="round"/>
<path d="M15.3054 7.08366C15.519 6.87002 15.8088 6.75 16.1109 6.75C16.413 6.75 16.7028 6.87002 16.9164 7.08366C17.1301 7.29729 17.2501 7.58705 17.2501 7.88918C17.2501 8.19131 17.1301 8.48106 16.9164 8.6947L11.8148 13.7963L9.66675 14.3333L10.2038 12.1853L15.3054 7.08366Z" stroke="white" stroke-width="1.2" stroke-linecap="round" stroke-linejoin="round"/>
</svg>
