<svg width="24" height="24" viewBox="0 0 24 24" fill="none" xmlns="http://www.w3.org/2000/svg">
<path d="M3.99995 3.19995H10.4C10.9333 3.19995 11.2 3.46662 11.2 3.99995V10.4C11.2 10.9333 10.9333 11.2 10.4 11.2H3.99995C3.46662 11.2 3.19995 10.9333 3.19995 10.4V3.99995C3.19995 3.46662 3.46662 3.19995 3.99995 3.19995Z" fill="#666666"/>
<path d="M3.99995 12.8H10.4C10.9333 12.8 11.2 13.0667 11.2 13.6V20C11.2 20.5334 10.9333 20.8 10.4 20.8H3.99995C3.46662 20.8 3.19995 20.5334 3.19995 20V13.6C3.19995 13.0667 3.46662 12.8 3.99995 12.8Z" fill="#666666"/>
<path d="M13.5999 3.19995H19.9999C20.5333 3.19995 20.7999 3.46662 20.7999 3.99995V10.4C20.7999 10.9333 20.5333 11.2 19.9999 11.2H13.5999C13.0666 11.2 12.7999 10.9333 12.7999 10.4V3.99995C12.7999 3.46662 13.0666 3.19995 13.5999 3.19995Z" fill="#666666"/>
<path d="M13.5999 12.8H19.9999C20.5333 12.8 20.7999 13.0667 20.7999 13.6V20C20.7999 20.5334 20.5333 20.8 19.9999 20.8H13.5999C13.0666 20.8 12.7999 20.5334 12.7999 20V13.6C12.7999 13.0667 13.0666 12.8 13.5999 12.8Z" fill="#666666"/>
</svg>
