<svg width="46" height="46" viewBox="0 0 46 46" fill="none" xmlns="http://www.w3.org/2000/svg">
<path d="M28.75 7.66536H9.58333V38.332H36.4167V15.332H28.75V7.66536ZM5.75 5.73336C5.75 4.68303 6.60675 3.83203 7.66475 3.83203H30.6667L40.25 13.4154V40.2353C40.2518 40.487 40.2039 40.7366 40.1092 40.9698C40.0146 41.203 39.8749 41.4153 39.6981 41.5945C39.5214 41.7737 39.3111 41.9164 39.0792 42.0143C38.8473 42.1123 38.5985 42.1636 38.3467 42.1654H7.65325C7.14989 42.1619 6.66812 41.9605 6.312 41.6047C5.95588 41.249 5.75401 40.7674 5.75 40.264V5.73336ZM25.9306 27.6869C24.3231 28.6261 22.4289 28.9486 20.6012 28.5943C18.7735 28.2401 17.137 27.2331 15.9969 25.7613C14.8568 24.2895 14.2909 22.4533 14.4048 20.595C14.5186 18.7368 15.3044 16.9834 16.6156 15.6617C17.9351 14.3424 19.6905 13.5496 21.5527 13.4319C23.4149 13.3143 25.2561 13.8797 26.7312 15.0224C28.2063 16.1651 29.2141 17.8065 29.5656 19.639C29.9171 21.4715 29.5883 23.3693 28.6407 24.9767L32.8766 29.2125L30.1664 31.9246L25.9306 27.6888V27.6869ZM24.7461 23.7922C25.1122 23.4386 25.4042 23.0156 25.6051 22.5479C25.806 22.0802 25.9118 21.5772 25.9162 21.0682C25.9206 20.5592 25.8236 20.0545 25.6309 19.5834C25.4382 19.1123 25.1535 18.6843 24.7936 18.3244C24.4337 17.9644 24.0057 17.6798 23.5346 17.487C23.0635 17.2943 22.5587 17.1973 22.0497 17.2017C21.5407 17.2062 21.0377 17.3119 20.57 17.5128C20.1024 17.7137 19.6794 18.0057 19.3258 18.3719C18.6275 19.0948 18.2411 20.0631 18.2498 21.0682C18.2586 22.0733 18.6617 23.0348 19.3724 23.7455C20.0832 24.4562 21.0446 24.8594 22.0497 24.8681C23.0548 24.8769 24.0231 24.4905 24.7461 23.7922V23.7922Z" fill="white"/>
</svg>
