<svg width="46" height="46" viewBox="0 0 46 46" fill="none" xmlns="http://www.w3.org/2000/svg">
<path d="M13.9745 39.9114L3.8334 42.1654L6.0874 32.0243C4.603 29.2478 3.82866 26.1471 3.8334 22.9987C3.8334 12.4129 12.4143 3.83203 23.0001 3.83203C33.5858 3.83203 42.1667 12.4129 42.1667 22.9987C42.1667 33.5845 33.5858 42.1654 23.0001 42.1654C19.8517 42.1701 16.751 41.3958 13.9745 39.9114V39.9114ZM14.5303 35.8615L15.7819 36.5323C18.0025 37.719 20.4823 38.3373 23.0001 38.332C26.0327 38.332 28.9973 37.4327 31.5188 35.7479C34.0404 34.0631 36.0057 31.6683 37.1662 28.8665C38.3268 26.0647 38.6304 22.9817 38.0388 20.0073C37.4471 17.0329 35.9868 14.3008 33.8424 12.1564C31.698 10.012 28.9658 8.55163 25.9914 7.95999C23.0171 7.36835 19.9341 7.672 17.1323 8.83255C14.3305 9.99309 11.9357 11.9584 10.2509 14.48C8.56601 17.0015 7.66673 19.9661 7.66673 22.9987C7.66673 25.5555 8.28965 28.0165 9.4684 30.2169L10.1373 31.4685L8.8819 37.1169L14.5303 35.8615V35.8615ZM13.4167 22.9987H17.2501C17.2501 24.5237 17.8559 25.9862 18.9342 27.0646C20.0125 28.1429 21.4751 28.7487 23.0001 28.7487C24.5251 28.7487 25.9876 28.1429 27.0659 27.0646C28.1443 25.9862 28.7501 24.5237 28.7501 22.9987H32.5834C32.5834 25.5404 31.5737 27.9779 29.7765 29.7751C27.9793 31.5724 25.5417 32.582 23.0001 32.582C20.4584 32.582 18.0208 31.5724 16.2236 29.7751C14.4264 27.9779 13.4167 25.5404 13.4167 22.9987V22.9987Z" fill="white"/>
</svg>
