<svg width="46" height="46" viewBox="0 0 46 46" fill="none" xmlns="http://www.w3.org/2000/svg">
<path d="M10.4555 28.7487L1.91675 35.457V5.7487C1.91675 5.24037 2.11868 4.75285 2.47813 4.39341C2.83757 4.03397 3.32508 3.83203 3.83341 3.83203H32.5834C33.0917 3.83203 33.5793 4.03397 33.9387 4.39341C34.2981 4.75285 34.5001 5.24037 34.5001 5.7487V28.7487H10.4555ZM9.12916 24.9154H30.6667V7.66536H5.75008V27.5699L9.12916 24.9154ZM15.3334 32.582H34.9543L38.3334 35.2366V15.332H40.2501C40.7584 15.332 41.2459 15.534 41.6054 15.8934C41.9648 16.2529 42.1667 16.7404 42.1667 17.2487V43.1237L33.628 36.4154H17.2501C16.7417 36.4154 16.2542 36.2134 15.8948 35.854C15.5353 35.4945 15.3334 35.007 15.3334 34.4987V32.582Z" fill="white"/>
</svg>
