<svg width="60" height="24" viewBox="0 0 60 24" fill="none" xmlns="http://www.w3.org/2000/svg">
<path d="M0 12C0 5.37258 5.37258 0 12 0H48C54.6274 0 60 5.37258 60 12C60 18.6274 54.6274 24 48 24H12C5.37258 24 0 18.6274 0 12Z" fill="black" fill-opacity="0.6"/>
<path d="M6.75 11.4167L17.8333 6.16675L12.5833 17.2501L11.4167 12.5834L6.75 11.4167Z" stroke="white" stroke-width="1.2" stroke-linecap="round" stroke-linejoin="round"/>
<path d="M26.7695 9.66992H29.248C29.4395 8.85352 29.6016 7.96289 29.7344 6.99805L30.7305 7.12695C30.5977 8.01367 30.4355 8.86133 30.2441 9.66992H36.7188V10.5371H30.0215C29.8809 11.0527 29.7266 11.5488 29.5586 12.0254H35.3711V12.834C34.8555 14.1113 34.0527 15.2148 32.9629 16.1445C34.0605 16.8086 35.3398 17.2754 36.8008 17.5449C36.4492 17.9355 36.1758 18.2637 35.9805 18.5293C34.7305 18.1152 33.4727 17.5098 32.207 16.7129C31.1914 17.3809 29.7383 18.0137 27.8477 18.6113C27.6289 18.2988 27.3945 18.0098 27.1445 17.7441C29.0664 17.2441 30.502 16.7148 31.4512 16.1562C30.4238 15.2773 29.6914 14.1699 29.2539 12.834C28.3984 14.9746 27.2344 16.7324 25.7617 18.1074C25.5508 17.8105 25.3438 17.5449 25.1406 17.3105C26.9023 15.7207 28.1973 13.4629 29.0254 10.5371H25.7734V9.6582C26.0938 8.91602 26.3867 8.16992 26.6523 7.41992L27.6016 7.67773C27.3281 8.36523 27.0508 9.0293 26.7695 9.66992ZM34.3398 12.834H30.1035C30.4551 13.916 31.1523 14.8477 32.1953 15.6289C33.207 14.793 33.9219 13.8613 34.3398 12.834ZM32.5352 7.80664L33.0508 7.15039C33.8164 7.63477 34.5508 8.13867 35.2539 8.66211L34.6211 9.42383C33.9414 8.8457 33.2461 8.30664 32.5352 7.80664ZM40.5867 12.2012H44.0906C44.1062 12.0371 44.1141 11.3848 44.1141 10.2441H41.0203V9.42383H45.0398C45.8055 8.4707 46.3562 7.66992 46.6922 7.02148L47.6297 7.5957C47.3094 8.00195 46.7937 8.61133 46.0828 9.42383H48.5203V10.2441H45.0281C45.0281 11.2207 45.0242 11.873 45.0164 12.2012H48.8016V13.0215H44.9344C44.9187 13.2246 44.8875 13.4199 44.8406 13.6074C46.075 14.4199 47.2742 15.252 48.4383 16.1035L47.8172 16.9004C46.6141 15.9551 45.5242 15.1387 44.5477 14.4512C44.0164 15.5449 42.9695 16.4121 41.407 17.0527C41.1961 16.7793 40.9852 16.5332 40.7742 16.3145C42.782 15.5176 43.8602 14.4199 44.0086 13.0215H40.5867V12.2012ZM42.2742 17.4746C44.0008 17.5059 46.2547 17.4902 49.0359 17.4277C48.9031 17.7402 48.7742 18.041 48.6492 18.3301C45.868 18.3535 43.7195 18.3496 42.2039 18.3184C40.7898 18.2793 39.8016 17.8262 39.2391 16.959C39.0125 17.1387 38.5555 17.6387 37.868 18.459L37.3641 17.4629C37.8484 17.0254 38.3328 16.5996 38.8172 16.1855V12.0957H37.4812V11.2402H39.7312V16.373C40.2859 17.0605 41.1336 17.4277 42.2742 17.4746ZM38.5711 7.17383C39.1492 7.85352 39.7508 8.61523 40.3758 9.45898L39.532 10.0215C39.0242 9.24023 38.4617 8.4668 37.8445 7.70117L38.5711 7.17383ZM41.8641 7.57227L42.5672 7.04492C42.9656 7.47461 43.4227 8.00977 43.9383 8.65039L43.1297 9.21289C42.6609 8.54883 42.2391 8.00195 41.8641 7.57227Z" fill="white"/>
</svg>
