<svg width="48" height="48" viewBox="0 0 48 48" fill="none" xmlns="http://www.w3.org/2000/svg">
<g clip-path="url(#clip0)">
<path d="M1.71429 21.8193H46.2857C47.4286 21.8193 48 22.3908 48 23.5336V24.4696C48 25.6125 47.4286 26.1839 46.2857 26.1839H1.71429C0.571429 26.1839 0 25.6125 0 24.4696V23.5336C0 22.3908 0.571429 21.8193 1.71429 21.8193Z" fill="#999999"/>
<path d="M23.5337 0H24.4697C25.6126 0 26.184 0.571429 26.184 1.71429V46.2857C26.184 47.4286 25.6126 48 24.4697 48H23.5337C22.3909 48 21.8195 47.4286 21.8195 46.2857V1.71429C21.8195 0.571429 22.3909 0 23.5337 0V0Z" fill="#999999"/>
</g>
<defs>
<clipPath id="clip0">
<rect width="48" height="48" fill="white"/>
</clipPath>
</defs>
</svg>
