<svg width="24" height="24" viewBox="0 0 24 24" fill="none" xmlns="http://www.w3.org/2000/svg">
<path d="M3.99995 3.2002H10.4C10.9333 3.2002 11.2 3.46686 11.2 4.0002V10.4002C11.2 10.9335 10.9333 11.2002 10.4 11.2002H3.99995C3.46662 11.2002 3.19995 10.9335 3.19995 10.4002V4.0002C3.19995 3.46686 3.46662 3.2002 3.99995 3.2002Z" fill="#666666"/>
<path d="M3.99995 12.7998H10.4C10.9333 12.7998 11.2 13.0665 11.2 13.5998V19.9998C11.2 20.5331 10.9333 20.7998 10.4 20.7998H3.99995C3.46662 20.7998 3.19995 20.5331 3.19995 19.9998V13.5998C3.19995 13.0665 3.46662 12.7998 3.99995 12.7998Z" fill="#666666"/>
<path d="M13.5999 3.2002H19.9999C20.5333 3.2002 20.7999 3.46686 20.7999 4.0002V10.4002C20.7999 10.9335 20.5333 11.2002 19.9999 11.2002H13.5999C13.0666 11.2002 12.7999 10.9335 12.7999 10.4002V4.0002C12.7999 3.46686 13.0666 3.2002 13.5999 3.2002Z" fill="#666666"/>
<path d="M13.5999 12.7998H19.9999C20.5333 12.7998 20.7999 13.0665 20.7999 13.5998V19.9998C20.7999 20.5331 20.5333 20.7998 19.9999 20.7998H13.5999C13.0666 20.7998 12.7999 20.5331 12.7999 19.9998V13.5998C12.7999 13.0665 13.0666 12.7998 13.5999 12.7998Z" fill="#666666"/>
</svg>
