<svg width="46" height="46" viewBox="0 0 46 46" fill="none" xmlns="http://www.w3.org/2000/svg">
<path d="M26.8334 19.6458L32.5834 15.3333V26.8333L26.8334 22.5208V26.8333H13.4167V15.3333H26.8334V19.6458ZM11.0458 32.5833H38.3334V9.58333H7.66671V35.2379L11.0458 32.5833ZM12.3721 36.4167L3.83337 43.125V7.66667C3.83337 7.15834 4.03531 6.67082 4.39475 6.31138C4.7542 5.95193 5.24171 5.75 5.75004 5.75H40.25C40.7584 5.75 41.2459 5.95193 41.6053 6.31138C41.9648 6.67082 42.1667 7.15834 42.1667 7.66667V34.5C42.1667 35.0083 41.9648 35.4958 41.6053 35.8553C41.2459 36.2147 40.7584 36.4167 40.25 36.4167H12.3721Z" fill="white"/>
</svg>
