<svg width="209" height="62" viewBox="0 0 209 62" fill="none" xmlns="http://www.w3.org/2000/svg">
<path d="M74.084 23.3594H75.3555C75.9388 23.3594 76.2487 23.6602 76.2852 24.2617L76.5039 27.2832H75.1641C74.5898 27.2832 74.2845 26.9779 74.248 26.3672L74.084 23.3594ZM77.0371 18.752H80.5918V39.998C80.5918 40.9733 80.373 41.6523 79.9355 42.0352C79.571 42.3542 78.974 42.5137 78.1445 42.5137H75.957C75.2005 42.5137 74.8223 42.1354 74.8223 41.3789V39H76.3945C76.7044 39 76.8594 38.7767 76.8594 38.3301V31.4941H73.7422V41.1465C73.7422 41.7754 73.5964 42.2357 73.3047 42.5273C73.013 42.819 72.5527 42.9648 71.9238 42.9648H70.0098V31.4941H68.875V27.9531H70.0098V18.752H72.6758L73.0859 17.6172C73.2227 17.2344 73.3776 16.9837 73.5508 16.8652C73.7331 16.7285 74.0156 16.6602 74.3984 16.6602H77.748L77.0371 18.752ZM76.8594 22.293H73.7422V27.9531H76.8594V22.293ZM81.7812 42.9102V25.6699H85.8828V27.3105C86.0833 26.7546 86.2839 26.3626 86.4844 26.1348C86.7578 25.8249 87.1497 25.6699 87.6602 25.6699H93.498V37.8242C93.498 38.2799 93.7259 38.5078 94.1816 38.5078H95.125V41.3652C95.125 42.1309 94.724 42.5137 93.9219 42.5137H92.0078C91.3971 42.5137 90.9505 42.459 90.668 42.3496C90.1667 42.14 89.8112 41.7936 89.6016 41.3105C89.4648 40.9915 89.3965 40.4766 89.3965 39.7656V29.4023H85.8828V40.627C85.8828 41.4199 85.7096 41.9987 85.3633 42.3633C85.0169 42.7279 84.4655 42.9102 83.709 42.9102H81.7812ZM81.1934 19.873H94.6875V23.7969H81.1934V19.873ZM90.2578 19.6133H86.293C85.9102 19.6133 85.6276 19.5495 85.4453 19.4219C85.263 19.2943 85.1081 19.0527 84.9805 18.6973L84.2695 16.7285H88.248C88.6217 16.7285 88.8997 16.7923 89.082 16.9199C89.2643 17.0475 89.4193 17.2891 89.5469 17.6445L90.2578 19.6133ZM74.125 32.3555H75.3965C75.9707 32.3555 76.276 32.6562 76.3125 33.2578L76.5449 37.0449H75.2188C74.6263 37.0449 74.3164 36.7396 74.2891 36.1289L74.125 32.3555ZM115.323 34.1328V37.6875H111.399V34.1328H108.801V38.002H104.877V22.7715H107.68L107.051 21.377H111.672L112.288 22.7715H114.598L116.567 20.8984H104.809V17.7266H122.145V20.4473L119.315 22.7715H122.186V35.8418C122.186 36.6074 122.013 37.1497 121.666 37.4688C121.357 37.7513 120.819 37.8926 120.053 37.8926H117.702C116.79 37.8926 116.334 37.4368 116.334 36.5254V35.2129H117.811C118.112 35.2129 118.262 35.0579 118.262 34.748V34.1328H115.323ZM115.323 25.9434V27.0234H118.262V25.9434H115.323ZM111.399 27.0234V25.9434H108.801V27.0234H111.399ZM115.323 31.1523H118.262V30.0039H115.323V31.1523ZM111.399 31.1523V30.0039H108.801V31.1523H111.399ZM103.579 38.5625H123.061V40.4766C123.061 41.1055 122.915 41.5658 122.623 41.8574C122.332 42.1491 121.871 42.2949 121.243 42.2949H106.682C106.008 42.2949 105.529 42.2402 105.246 42.1309C104.964 42.0215 104.572 41.7389 104.071 41.2832L103.018 40.3262L102.745 41.2148C102.562 41.7982 102.339 42.1901 102.075 42.3906C101.801 42.6003 101.377 42.7051 100.803 42.7051H97.5492L99.5043 38.2754V29.2656H96.9887V25.5332H103.606V38.4531L103.579 38.5625ZM97.9867 16.8242H100.694C101.295 16.8242 101.742 16.9427 102.034 17.1797C102.316 17.4167 102.512 17.8314 102.621 18.4238L103.414 22.6758H100.598C99.9874 22.6758 99.5408 22.5573 99.2582 22.3203C98.9665 22.0742 98.7751 21.6549 98.684 21.0625L97.9867 16.8242ZM138.214 27.4336C138.961 27.4336 139.613 27.707 140.169 28.2539C140.716 28.8008 140.989 29.4616 140.989 30.2363C140.989 30.9928 140.716 31.6491 140.169 32.2051C139.622 32.752 138.961 33.0254 138.186 33.0254C137.421 33.0254 136.764 32.752 136.218 32.2051C135.671 31.6491 135.397 30.9883 135.397 30.2227C135.397 29.1836 135.844 28.3906 136.737 27.8438C137.193 27.5703 137.685 27.4336 138.214 27.4336ZM166.669 29.9219L161.077 37.9883H172.316L170.484 33.3125H174.107C174.717 33.3125 175.173 33.4128 175.474 33.6133C175.765 33.8138 176.021 34.1921 176.239 34.748L179.316 42.541L175.665 42.5547H175.255C174.489 42.5547 173.915 42.0716 173.532 41.1055L172.876 39.4238L171.741 41.9121H154.652V38.3438L160.503 29.9219H153.503V25.998H179.165V29.9219H166.669ZM155.198 21.8691V18.1367H177.566V21.8691H155.198ZM206.609 32.5605V40.0527C206.609 40.5814 206.559 40.9642 206.459 41.2012C206.258 41.6842 205.907 42.026 205.406 42.2266C205.169 42.3177 204.777 42.3633 204.23 42.3633H189.957V32.5605H194.441V34.0098C194.66 33.3991 194.91 32.9935 195.193 32.793C195.412 32.638 195.749 32.5605 196.205 32.5605H206.609ZM202.138 35.9238H194.441V38.9727H201.564C201.947 38.9727 202.138 38.7448 202.138 38.2891V35.9238ZM187.892 23.291V42.9512H183.23V28.3223H180.947L184.173 19.0391C184.52 18.0182 184.821 17.3984 185.076 17.1797C185.377 16.9245 185.969 16.7969 186.853 16.7969H189.847L187.892 23.291ZM200.744 19.1348H207.539V22.8672H189.328V19.1348H195.261L195.248 19.0801L194.591 16.7012H198.939C199.386 16.7012 199.718 16.7832 199.937 16.9473C200.156 17.1204 200.315 17.403 200.416 17.7949L200.744 19.1348ZM206.486 27.0234H190.08V23.8516H206.486V27.0234ZM190.08 31.248V28.0762H206.486V31.248H190.08Z" fill="#565757"/>
<g clip-path="url(#clip0)">
<path fill-rule="evenodd" clip-rule="evenodd" d="M60.6231 3.30012L0.476666 36.5025C-0.30711 36.9353 -0.074852 38.116 0.815596 38.2208L22.4625 38.4078C22.9141 38.4613 23.2591 38.8338 23.2765 39.2862L21.7241 61.1125C21.7581 62.0022 22.9141 62.3302 23.4127 61.5905L61.8374 4.61733C62.3776 3.8166 61.4712 2.8319 60.6231 3.30012Z" fill="#00519E"/>
<path fill-rule="evenodd" clip-rule="evenodd" d="M28.3392 8.69782C29.7033 7.90463 33.8067 13.3235 35.0225 14.0903C35.77 14.5615 37.3678 13.3944 36.4698 12.1164L24.6049 0.298454C24.039 -0.319812 23.0064 0.0858311 23.0154 0.921998L24.2448 18.7718C24.2524 19.4662 24.8788 20.0068 25.453 19.7648C25.453 19.7648 25.9107 19.516 26.0825 19.1608C26.2527 18.8117 27.0607 9.44125 28.3392 8.69782Z" fill="#D9DADB"/>
<path fill-rule="evenodd" clip-rule="evenodd" d="M61.5256 43.4339L49.52 29.7582C48.6568 29.0268 48.1439 29.2093 47.6242 29.7627C47.6242 29.7627 46.9629 30.4126 47.1831 30.8824C47.4169 31.38 52.0204 37.5348 53.8081 39.7726C53.9821 39.9897 53.8747 40.3916 53.4435 40.3539C50.7638 40.1179 43.5615 39.4627 42.7649 39.6248C42.1574 39.7485 41.6293 40.6088 41.6029 41.1984C41.5771 41.7556 42.028 43.0992 42.8186 43.3713L60.4415 45.5594C61.5763 45.576 62.1747 44.2497 61.5256 43.4339Z" fill="#D9DADB"/>
<path fill-rule="evenodd" clip-rule="evenodd" d="M33.3794 34.1658C33.4324 34.3188 33.5156 34.4425 33.6275 34.5428H36.8935C37.041 34.4455 37.1825 34.3218 37.3096 34.1658H33.3794Z" fill="white"/>
<path fill-rule="evenodd" clip-rule="evenodd" d="M34.4107 33.114C34.4054 33.0175 34.4197 32.9021 34.4432 32.7642H33.3916C33.3674 32.8878 33.35 33.0054 33.3379 33.114H34.4107Z" fill="white"/>
<path fill-rule="evenodd" clip-rule="evenodd" d="M36.441 33.4646C36.2042 33.5943 35.8767 33.5943 35.4477 33.5943C35.0195 33.5943 34.7562 33.5558 34.6027 33.4646H33.3052C33.2999 33.5943 33.2999 33.7096 33.3112 33.8152H37.5433C37.5993 33.7096 37.6553 33.5943 37.706 33.4646H36.441Z" fill="white"/>
<path fill-rule="evenodd" clip-rule="evenodd" d="M36.8723 32.7642C36.8398 32.9052 36.8042 33.0205 36.7573 33.114H37.821C37.8536 33.0054 37.8831 32.8908 37.9095 32.7642H36.8723Z" fill="white"/>
<path fill-rule="evenodd" clip-rule="evenodd" d="M36.7188 32.0659C36.8337 32.1277 36.8988 32.2393 36.9079 32.4165H37.9746C37.9897 32.3072 38.0011 32.1896 38.0041 32.0659H36.7188Z" fill="white"/>
<path fill-rule="evenodd" clip-rule="evenodd" d="M34.0798 31.3384C34.1774 31.5095 34.325 31.6415 34.5436 31.7154H37.9806C37.9601 31.5857 37.9246 31.456 37.8656 31.3384H34.0798Z" fill="white"/>
<path fill-rule="evenodd" clip-rule="evenodd" d="M33.9294 30.6372C33.9294 30.7586 33.9378 30.8792 33.9589 30.9878H37.5639C37.4194 30.8845 37.2272 30.8084 36.976 30.7759L35.9237 30.6372H33.9294V30.6372Z" fill="white"/>
<path fill-rule="evenodd" clip-rule="evenodd" d="M34.0089 29.9368C33.9854 30.0514 33.9673 30.169 33.9529 30.2866H35.0135C34.9871 30.1901 34.9961 30.0717 35.0226 29.9368H34.0089Z" fill="white"/>
<path fill-rule="evenodd" clip-rule="evenodd" d="M34.21 29.2356C34.1684 29.3442 34.1298 29.4625 34.0942 29.5862H35.1315C35.2117 29.4181 35.3183 29.3065 35.4477 29.2356H34.21Z" fill="white"/>
<path fill-rule="evenodd" clip-rule="evenodd" d="M38.0844 28.1868C37.8067 27.9515 37.3278 27.8362 36.5479 27.8362C36.0274 27.8362 35.466 27.8686 34.9932 28.1868H38.0844Z" fill="white"/>
<path fill-rule="evenodd" clip-rule="evenodd" d="M38.4088 28.8849C38.3975 28.7583 38.374 28.6406 38.3324 28.5374H34.6057C34.5232 28.6376 34.443 28.7522 34.3696 28.8849H38.4088Z" fill="white"/>
<path fill-rule="evenodd" clip-rule="evenodd" d="M38.3681 29.5862C38.3855 29.4656 38.4007 29.3472 38.4067 29.2356H37.1206C37.2394 29.3125 37.2893 29.4271 37.2923 29.5862H38.3681Z" fill="white"/>
<path fill-rule="evenodd" clip-rule="evenodd" d="M38.2735 30.1283C38.2849 30.0634 38.297 29.9986 38.3091 29.9368H37.2567C37.2477 29.9956 37.2363 30.0604 37.2212 30.1283H38.2735Z" fill="white"/>
<path fill-rule="evenodd" clip-rule="evenodd" d="M32.4785 29.5862C32.4838 29.4625 32.4838 29.3442 32.4815 29.2356H30.8792C31.1159 29.271 31.2635 29.3713 31.3285 29.5862H32.4785Z" fill="white"/>
<path fill-rule="evenodd" clip-rule="evenodd" d="M32.4133 30.2866C32.4277 30.166 32.4428 30.0484 32.4542 29.9368H31.3731C31.3731 30.0393 31.364 30.1577 31.3489 30.2866H32.4133Z" fill="white"/>
<path fill-rule="evenodd" clip-rule="evenodd" d="M32.2945 30.9878C32.3187 30.8672 32.3391 30.7496 32.3565 30.6372H31.3019C31.2837 30.7465 31.2603 30.8642 31.2368 30.9878H32.2945Z" fill="white"/>
<path fill-rule="evenodd" clip-rule="evenodd" d="M32.1409 31.7154C32.1674 31.5947 32.1976 31.4681 32.2241 31.3384H31.1657C31.1362 31.4711 31.1097 31.5977 31.0833 31.7154H32.1409Z" fill="white"/>
<path fill-rule="evenodd" clip-rule="evenodd" d="M31.9638 32.4165C31.9964 32.3012 32.0259 32.1866 32.0584 32.0659H31.003C30.9705 32.1926 30.938 32.3072 30.9084 32.4165H31.9638Z" fill="white"/>
<path fill-rule="evenodd" clip-rule="evenodd" d="M31.7393 33.114C31.7809 33.0054 31.8195 32.8878 31.8604 32.7642H30.7936C30.7407 32.9052 30.6817 33.0205 30.6196 33.114H31.7393Z" fill="white"/>
<path fill-rule="evenodd" clip-rule="evenodd" d="M26.7747 34.1658L26.6975 34.5428H30.7405C30.894 34.4455 31.0355 34.3218 31.1656 34.1658H26.7747Z" fill="white"/>
<path fill-rule="evenodd" clip-rule="evenodd" d="M26.9223 33.4646L26.8481 33.8152H31.4108C31.4759 33.7096 31.5357 33.5913 31.5947 33.4646H30.1406C30.0279 33.494 29.9008 33.5061 29.7563 33.5061H27.9656L27.9746 33.4646H26.9223Z" fill="white"/>
<path fill-rule="evenodd" clip-rule="evenodd" d="M27.07 32.7642L26.9966 33.114H28.0482L28.1223 32.7642H27.07Z" fill="white"/>
<path fill-rule="evenodd" clip-rule="evenodd" d="M27.2182 32.0659L27.144 32.4165H28.1956L28.2698 32.0659H27.2182Z" fill="white"/>
<path fill-rule="evenodd" clip-rule="evenodd" d="M27.3687 31.3384L27.2915 31.7154H28.3439L28.4203 31.3384H27.3687Z" fill="white"/>
<path fill-rule="evenodd" clip-rule="evenodd" d="M27.5163 30.6372L27.4421 30.9878H28.4945L28.5686 30.6372H27.5163Z" fill="white"/>
<path fill-rule="evenodd" clip-rule="evenodd" d="M27.6637 29.9368L27.5903 30.2866H28.6419L28.7161 29.9368H27.6637Z" fill="white"/>
<path fill-rule="evenodd" clip-rule="evenodd" d="M27.8119 29.2356L27.7378 29.5862H28.7901L28.8635 29.2356H27.8119Z" fill="white"/>
<path fill-rule="evenodd" clip-rule="evenodd" d="M27.9596 28.5374L27.8855 28.8849H32.4429C32.4187 28.7553 32.3839 28.6376 32.3362 28.5374H27.9596Z" fill="white"/>
<path fill-rule="evenodd" clip-rule="evenodd" d="M28.0897 27.907L28.0337 28.1867H32.0759C31.8338 27.9839 31.482 27.907 31.0152 27.907H28.0897Z" fill="white"/>
<path fill-rule="evenodd" clip-rule="evenodd" d="M26.1983 29.5862C26.2218 29.4625 26.2369 29.3442 26.2482 29.2356H25.0249C25.1104 29.2974 25.149 29.4037 25.1399 29.5862H26.1983Z" fill="white"/>
<path fill-rule="evenodd" clip-rule="evenodd" d="M26.0122 30.2866C26.053 30.172 26.0916 30.0544 26.1211 29.9368H25.0869C25.0574 30.0665 25.0279 30.1841 24.9863 30.2866H26.0122Z" fill="white"/>
<path fill-rule="evenodd" clip-rule="evenodd" d="M25.755 32.4165C25.7671 32.2899 25.7694 32.1715 25.761 32.0659H24.6641C24.7117 32.1398 24.7412 32.2484 24.7352 32.4165H25.755Z" fill="white"/>
<path fill-rule="evenodd" clip-rule="evenodd" d="M25.6339 33.114C25.6513 33.0348 25.6694 32.964 25.6838 32.8991C25.6929 32.8554 25.702 32.8079 25.7073 32.7642H24.6852C24.6527 32.9052 24.6201 33.0205 24.5815 33.114H25.6339Z" fill="white"/>
<path fill-rule="evenodd" clip-rule="evenodd" d="M20.8435 34.1658L20.7664 34.5428H24.7972C24.8214 34.5284 24.8388 34.5164 24.8509 34.5043C24.9803 34.4191 25.093 34.3015 25.1876 34.1658H20.8435Z" fill="white"/>
<path fill-rule="evenodd" clip-rule="evenodd" d="M20.9911 33.4646L20.917 33.8152H25.3889C25.4419 33.7006 25.4888 33.583 25.5274 33.4646H24.3305C24.2216 33.5385 24.0914 33.5588 23.9348 33.5588H21.9928L22.011 33.4646H20.9911Z" fill="white"/>
<path fill-rule="evenodd" clip-rule="evenodd" d="M21.1386 32.7642L21.0652 33.114H22.0842L22.1584 32.7642H21.1386Z" fill="white"/>
<path fill-rule="evenodd" clip-rule="evenodd" d="M21.2868 32.0659L21.2126 32.4165H22.2325L22.3058 32.0659H21.2868Z" fill="white"/>
<path fill-rule="evenodd" clip-rule="evenodd" d="M21.4375 31.3384L21.3604 31.7154H25.6931C25.634 31.5533 25.5455 31.4296 25.4184 31.3384H21.4375Z" fill="white"/>
<path fill-rule="evenodd" clip-rule="evenodd" d="M21.5849 30.6372L21.5115 30.9878H25.5537C25.6694 30.8845 25.764 30.7669 25.8434 30.6372H24.6995C24.614 30.6817 24.5074 30.7051 24.375 30.7051H22.5895L22.6047 30.6372H21.5849Z" fill="white"/>
<path fill-rule="evenodd" clip-rule="evenodd" d="M21.7333 29.9368L21.6592 30.2866H22.679L22.7524 29.9368H21.7333Z" fill="white"/>
<path fill-rule="evenodd" clip-rule="evenodd" d="M21.8808 29.2356L21.8066 29.5862H22.8265L22.8998 29.2356H21.8808Z" fill="white"/>
<path fill-rule="evenodd" clip-rule="evenodd" d="M22.0282 28.5374L21.9541 28.8849H26.2634C26.2603 28.7522 26.2452 28.6346 26.2248 28.5374H22.0282Z" fill="white"/>
<path fill-rule="evenodd" clip-rule="evenodd" d="M22.1585 27.907L22.1025 28.1867H26.0683C25.8527 27.907 25.5213 27.907 25.3534 27.907H22.1585Z" fill="white"/>
</g>
<defs>
<clipPath id="clip0">
<rect width="62" height="62" fill="white"/>
</clipPath>
</defs>
</svg>
