<svg width="24" height="24" viewBox="0 0 24 24" fill="none" xmlns="http://www.w3.org/2000/svg">
<path d="M3.99995 3.19971H10.4C10.9333 3.19971 11.2 3.46637 11.2 3.99971V10.3997C11.2 10.933 10.9333 11.1997 10.4 11.1997H3.99995C3.46662 11.1997 3.19995 10.933 3.19995 10.3997V3.99971C3.19995 3.46637 3.46662 3.19971 3.99995 3.19971V3.19971Z" fill="#368CFE"/>
<path d="M3.99995 12.7998H10.4C10.9333 12.7998 11.2 13.0665 11.2 13.5998V19.9998C11.2 20.5331 10.9333 20.7998 10.4 20.7998H3.99995C3.46662 20.7998 3.19995 20.5331 3.19995 19.9998V13.5998C3.19995 13.0665 3.46662 12.7998 3.99995 12.7998V12.7998Z" fill="#368CFE"/>
<path d="M13.5999 3.19971H19.9999C20.5333 3.19971 20.7999 3.46637 20.7999 3.99971V10.3997C20.7999 10.933 20.5333 11.1997 19.9999 11.1997H13.5999C13.0666 11.1997 12.7999 10.933 12.7999 10.3997V3.99971C12.7999 3.46637 13.0666 3.19971 13.5999 3.19971V3.19971Z" fill="#368CFE"/>
<path d="M13.5999 12.7998H19.9999C20.5333 12.7998 20.7999 13.0665 20.7999 13.5998V19.9998C20.7999 20.5331 20.5333 20.7998 19.9999 20.7998H13.5999C13.0666 20.7998 12.7999 20.5331 12.7999 19.9998V13.5998C12.7999 13.0665 13.0666 12.7998 13.5999 12.7998V12.7998Z" fill="#368CFE"/>
</svg>
